<svg width="74" height="20" viewBox="0 0 74 20" fill="none" xmlns="http://www.w3.org/2000/svg">
<g id="Card_credijamar" clip-path="url(#clip0_1508_1550)">
<path id="Vector" d="M0 6.81339V9.57747L19.4553 3.38029V1.19719C19.4553 0.580991 18.8621 0.158455 18.2863 0.334512L0.628154 5.95071C0.261731 6.07395 0 6.42606 0 6.81339Z" fill="white"/>
<path id="Vector_2" d="M1.16906 19.9648L18.8272 14.3486C19.1936 14.2254 19.4553 13.8909 19.4553 13.4859V5.95071L0 12.1479V19.1021C0 19.7183 0.593256 20.1409 1.16906 19.9648Z" fill="white"/>
<path id="Vector_3" d="M37.3926 12.4824C37.3926 10.2641 35.1242 9.48944 33.1874 9.48944C31.8264 9.48944 28.6159 9.82395 28.4414 12.8697C28.4414 12.9401 28.4588 12.993 28.5112 13.0458C28.5461 13.081 28.6159 13.1162 28.6682 13.1162H30.9714C31.0936 13.1162 31.1808 13.0282 31.1983 12.9049C31.303 11.831 32.2627 11.6021 33.0653 11.6021C34.2169 11.6021 34.7927 11.9542 34.7927 12.6585C34.7927 13.3979 34.2344 13.5035 33.0827 13.6444C32.7861 13.6796 32.472 13.7148 32.158 13.7676C30.7446 13.9261 28.0924 14.243 28.0924 16.9718C28.0924 18.9613 29.942 19.9824 31.7741 19.9824C32.7861 19.9824 34.1995 19.6831 35.1242 18.838C35.8222 18.2042 36.6772 17.9754 37.253 17.9754C37.3053 17.9754 37.3402 17.9578 37.3751 17.9225C37.41 17.8873 37.41 17.8345 37.41 17.7817C37.41 17.7113 37.3926 17.6232 37.3926 17.4824V12.4824ZM32.5418 17.8873C31.5124 17.8873 30.9365 17.5528 30.8493 16.8662C30.7272 15.9859 31.5996 15.6514 32.3673 15.5282C32.6116 15.493 32.8559 15.4578 33.1002 15.4225H33.1351C33.676 15.3521 34.1995 15.2993 34.6531 15.1056V16.3028C34.6531 17.4648 33.3794 17.8873 32.5418 17.8873ZM27.4119 9.78874V15.088C27.4119 17.324 26.9059 19.8768 22.8927 19.8768H21.0082C20.921 19.8768 20.8337 19.8063 20.8337 19.7183V17.5352C20.8337 17.4472 20.9035 17.3768 21.0082 17.3768H23.0672C24.4107 17.3768 24.6725 16.5669 24.6725 15.0528V9.80634C24.6725 9.6831 24.7772 9.57747 24.8993 9.57747H27.1851C27.3072 9.57747 27.4119 9.6831 27.4119 9.80634M53.2186 12.7641V19.6655C53.2186 19.7887 53.1139 19.8944 52.9917 19.8944H50.6885C50.5664 19.8944 50.4617 19.7887 50.4617 19.6655V13.4331C50.4617 12.9401 50.3395 11.6373 48.8389 11.6373C47.443 11.6373 47.286 12.7993 47.286 13.4331V19.6655C47.286 19.7887 47.1813 19.8944 47.0592 19.8944H44.7734C44.6512 19.8944 44.5466 19.7887 44.5466 19.6655V13.4331C44.5466 12.7993 44.3895 11.6373 42.9936 11.6373C41.493 11.6373 41.3709 12.9225 41.3709 13.4331V19.6655C41.3709 19.7887 41.2662 19.8944 41.144 19.8944H38.8408C38.7187 19.8944 38.614 19.7887 38.614 19.6655V12.7641C38.614 10.669 40.4112 9.52465 42.9936 9.52465C44.1976 9.52465 44.8257 9.84155 45.2968 10.0704C45.5411 10.1937 45.7331 10.2817 45.9075 10.2817C46.082 10.2817 46.274 10.1937 46.5183 10.0704C46.9894 9.84155 47.635 9.52465 48.8215 9.52465C51.4039 9.52465 53.2011 10.669 53.2011 12.7641M63.269 12.5176C63.269 10.2993 61.0007 9.52465 59.0639 9.52465C57.7029 9.52465 54.4923 9.85916 54.3178 12.9049C54.3178 12.9754 54.3178 13.0282 54.3876 13.081C54.4225 13.1162 54.4923 13.1514 54.5447 13.1514H56.8479C56.97 13.1514 57.0573 13.0634 57.0747 12.9401C57.162 11.8662 58.1391 11.6373 58.9417 11.6373C60.0934 11.6373 60.6692 11.9894 60.6692 12.6937C60.6692 13.4331 60.1108 13.5387 58.9592 13.6796C58.6626 13.7148 58.3485 13.75 58.0344 13.8028C56.6211 13.9613 53.9689 14.2782 53.9689 17.007C53.9689 18.9965 55.8184 20.0176 57.6505 20.0176C58.6626 20.0176 60.0759 19.7183 61.0007 18.8732C61.6986 18.2394 62.5536 18.0106 63.1294 18.0106C63.1818 18.0106 63.2341 17.993 63.2516 17.9578C63.2865 17.9225 63.2865 17.8697 63.2865 17.8169C63.2865 17.7465 63.269 17.6585 63.269 17.5176V12.5176ZM58.4183 17.9225C57.3888 17.9225 56.813 17.588 56.7258 16.9014C56.6036 16.0211 57.4761 15.6866 58.2438 15.5634C58.4881 15.5282 58.7498 15.493 58.9941 15.4578H59.029C59.5699 15.3873 60.0934 15.3345 60.5296 15.1409V16.338C60.5296 17.5 59.2733 17.9225 58.4183 17.9225ZM71.0512 9.75353V11.9366C71.0512 12.0247 70.9814 12.0951 70.8767 12.0951H68.8177C67.4742 12.0951 67.2124 12.9049 67.2124 14.419V19.6655C67.2124 19.7887 67.1077 19.8944 66.9856 19.8944H64.6998C64.5777 19.8944 64.473 19.7887 64.473 19.6655V14.3662C64.473 12.1303 64.979 9.57747 68.9922 9.57747H70.8767C70.9639 9.57747 71.0512 9.64789 71.0512 9.73592" fill="white"/>
<path id="Vector_4" d="M72.8659 9.91199C72.2726 9.91199 71.7317 10.3521 71.7317 11.0211C71.7317 11.6902 72.2726 12.1479 72.8659 12.1479C73.4591 12.1479 74 11.7078 74 11.0211C74 10.3345 73.4591 9.91199 72.8659 9.91199ZM72.8659 11.9014C72.4122 11.9014 72.0283 11.5317 72.0283 11.0211C72.0283 10.5106 72.3947 10.1409 72.8659 10.1409C73.337 10.1409 73.7034 10.5106 73.7034 11.0211C73.7034 11.5317 73.337 11.9014 72.8659 11.9014Z" fill="white"/>
<path id="Vector_5" d="M73.0228 11.0915C73.1799 11.0915 73.3195 11.0035 73.3195 10.7922C73.3195 10.5458 73.1624 10.4577 72.8832 10.4577H72.4645V11.5669H72.6913V11.0915H72.8309L73.0926 11.5669H73.3195L73.0228 11.0739V11.0915ZM72.6913 10.9331V10.6338H72.8832C72.9879 10.6338 73.1101 10.6514 73.1101 10.7746C73.1101 10.9155 73.0228 10.9331 72.9007 10.9331H72.7088H72.6913Z" fill="white"/>
<path id="Vector_6" d="M30.1863 5.6162L30.5702 6.81338C30.5702 6.81338 30.5702 6.98944 30.5004 7.02465C30.0642 7.34155 29.3139 7.72887 28.3367 7.72887C26.0684 7.72887 24.4457 6.12676 24.4457 3.89084C24.4457 1.97183 26.0161 0.193659 27.9005 -2.51271e-06C29.1219 -0.123242 29.9595 0.281688 30.5178 0.686617C30.5876 0.739434 30.6225 0.827462 30.5876 0.915491L30.1863 2.14789C30.1514 2.27112 29.9944 2.32394 29.8897 2.23591C29.5581 1.97183 29.0696 1.70774 28.3891 1.70774C27.1502 1.70774 26.3825 2.67605 26.3825 3.85563C26.3825 5.10563 27.2549 6.00352 28.4589 6.00352C29.0521 6.00352 29.5582 5.73944 29.9071 5.51056C30.0118 5.44014 30.1514 5.49296 30.2038 5.6162" fill="white"/>
<path id="Vector_7" d="M35.4558 1.8486C35.4558 1.95424 35.386 2.04227 35.2813 2.04227C33.9726 2.11269 33.484 3.01058 33.484 4.40142V7.42959C33.484 7.53522 33.3968 7.62325 33.2921 7.62325H31.7392C31.6345 7.62325 31.5472 7.53522 31.5472 7.42959V0.440153C31.5472 0.334519 31.6345 0.246491 31.7392 0.246491H33.2398C33.3445 0.246491 33.4317 0.334519 33.4317 0.440153V1.32043C33.7283 0.633815 34.3739 0.140857 35.2289 0.0704346C35.3336 0.0704346 35.4383 0.158463 35.4383 0.264097V1.8486H35.4558Z" fill="white"/>
<path id="Vector_8" d="M39.3469 -3.00631e-06C41.6152 -3.00631e-06 42.889 1.53169 42.889 3.92605C42.889 3.99648 42.889 4.0845 42.889 4.15493C42.889 4.26056 42.8017 4.34859 42.697 4.34859H37.7416C37.7765 5.3345 38.5617 6.03873 39.6435 6.03873C40.4985 6.03873 41.0394 5.59859 41.3011 5.28169C41.3709 5.19366 41.4756 5.19366 41.5629 5.24648L42.54 6.00352C42.54 6.00352 42.6447 6.17957 42.5749 6.2676C42.2085 6.83098 41.2488 7.72887 39.5912 7.72887C37.253 7.72887 35.7524 6.09155 35.7524 3.87324C35.7524 1.65493 37.253 -0.0176086 39.3294 -0.0176086M40.9173 3.06338C40.8824 2.16549 40.2368 1.5669 39.3469 1.5669C38.457 1.5669 37.8463 2.21831 37.7765 3.06338H40.9173Z" fill="white"/>
<path id="Vector_9" d="M45.9076 0.0704346H43.8836C43.7789 0.0704346 43.6917 0.158463 43.6917 0.264097V7.42959C43.6917 7.53522 43.7789 7.62325 43.8836 7.62325H45.9076C48.333 7.62325 49.851 6.17959 49.851 3.83804C49.851 1.49649 48.333 0.0704346 45.9076 0.0704346ZM47.8793 3.85565C47.8793 5.19367 47.1639 5.95072 45.9076 5.95072H45.5936V1.74297H45.9076C47.1639 1.74297 47.8793 2.50001 47.8793 3.83804" fill="white"/>
<path id="Vector_10" d="M50.9153 0.24649H52.4683C52.573 0.24649 52.6602 0.334519 52.6602 0.440152V7.42959C52.6602 7.53522 52.573 7.62325 52.4683 7.62325H50.9153C50.8106 7.62325 50.7234 7.53522 50.7234 7.42959V0.440152C50.7234 0.334519 50.8106 0.24649 50.9153 0.24649Z" fill="white"/>
</g>
<defs>
<clipPath id="clip0_1508_1550">
<rect width="74" height="20" fill="white"/>
</clipPath>
</defs>
</svg>
